HIERARCHY
ROOT Hips
{
  OFFSET -25.4992 47.4658 0.522821
  CHANNELS 6 Xposition Yposition Zposition Zrotation Xrotation Yrotation
  JOINT Bip01_Pelvis
  {
    OFFSET 0 0 0
    CHANNELS 6 Xposition Yposition Zposition Zrotation Xrotation Yrotation
    JOINT Bip01_Spine
    {
      OFFSET 7.92815 1.03427 -0.957866
      CHANNELS 6 Xposition Yposition Zposition Zrotation Xrotation Yrotation
      JOINT Bip01_Spine1
      {
        OFFSET 14.2482 -0.00839019 0.000894789
        CHANNELS 6 Xposition Yposition Zposition Zrotation Xrotation Yrotation
        JOINT Bip01_Neck
        {
          OFFSET 16.1384 -3.98645 0.000135839
          CHANNELS 6 Xposition Yposition Zposition Zrotation Xrotation Yrotation
          JOINT Bip01_Neck1
          {
            OFFSET 9.69266 -0.00491233 0
            CHANNELS 6 Xposition Yposition Zposition Zrotation Xrotation Yrotation
            JOINT Bip01_Head
            {
              OFFSET 6.2355 0 0
              CHANNELS 6 Xposition Yposition Zposition Zrotation Xrotation Yrotation
              JOINT BN_Mouth_01
              {
                OFFSET 4.58056 2.14338 0
                CHANNELS 6 Xposition Yposition Zposition Zrotation Xrotation Yrotation
                End Site
                {
                  OFFSET 0 0 0
                }
              }
            }
          }
          JOINT Bip01_L_Clavicle
          {
            OFFSET -0.933029 -3.98291 -6.88005
            CHANNELS 6 Xposition Yposition Zposition Zrotation Xrotation Yrotation
            JOINT Bip01_L_UpperArm
            {
              OFFSET 15.6802 0 0
              CHANNELS 6 Xposition Yposition Zposition Zrotation Xrotation Yrotation
              JOINT Bip01_L_Forearm
              {
                OFFSET 15.3149 0 0
                CHANNELS 6 Xposition Yposition Zposition Zrotation Xrotation Yrotation
                JOINT Bip01_L_Hand
                {
                  OFFSET 16.178 0 0
                  CHANNELS 6 Xposition Yposition Zposition Zrotation Xrotation Yrotation
                  JOINT Bip01_L_Finger0
                  {
                    OFFSET 12.9992 0 0
                    CHANNELS 6 Xposition Yposition Zposition Zrotation Xrotation Yrotation
                    End Site
                    {
                      OFFSET 0 0 0
                    }
                  }
                }
              }
              JOINT BN__UpperArm_L_01
              {
                OFFSET 4.92586 2.56729 1.95639
                CHANNELS 6 Xposition Yposition Zposition Zrotation Xrotation Yrotation
                End Site
                {
                  OFFSET 0 0 0
                }
              }
            }
          }
          JOINT Bip01_R_Clavicle
          {
            OFFSET -1.90751 -3.34722 7.0168
            CHANNELS 6 Xposition Yposition Zposition Zrotation Xrotation Yrotation
            JOINT Bip01_R_UpperArm
            {
              OFFSET 15.6801 0 0
              CHANNELS 6 Xposition Yposition Zposition Zrotation Xrotation Yrotation
              JOINT Bip01_R_Forearm
              {
                OFFSET 15.3149 0 0
                CHANNELS 6 Xposition Yposition Zposition Zrotation Xrotation Yrotation
                JOINT Bip01_R_Hand
                {
                  OFFSET 16.1779 0 0
                  CHANNELS 6 Xposition Yposition Zposition Zrotation Xrotation Yrotation
                  JOINT Bip01_R_Finger0
                  {
                    OFFSET 12.9991 0 0
                    CHANNELS 6 Xposition Yposition Zposition Zrotation Xrotation Yrotation
                    End Site
                    {
                      OFFSET 0 0 0
                    }
                  }
                }
              }
              JOINT BN__UpperArm_R_01
              {
                OFFSET 4.92584 2.56728 -1.95638
                CHANNELS 6 Xposition Yposition Zposition Zrotation Xrotation Yrotation
                End Site
                {
                  OFFSET 0 0 0
                }
              }
            }
          }
        }
      }
      JOINT Bip01_L_Thigh
      {
        OFFSET -8.91231 -1.85462 5.82833
        CHANNELS 6 Xposition Yposition Zposition Zrotation Xrotation Yrotation
        JOINT Bip01_L_Calf
        {
          OFFSET 15.7566 0 0
          CHANNELS 6 Xposition Yposition Zposition Zrotation Xrotation Yrotation
          JOINT Bip01_L_HorseLink
          {
            OFFSET 16.2363 0 0
            CHANNELS 6 Xposition Yposition Zposition Zrotation Xrotation Yrotation
            JOINT Bip01_L_Foot
            {
              OFFSET 13.9816 0 0
              CHANNELS 6 Xposition Yposition Zposition Zrotation Xrotation Yrotation
              JOINT Bip01_L_Toe0
              {
                OFFSET 7.68594 5.03696 0
                CHANNELS 6 Xposition Yposition Zposition Zrotation Xrotation Yrotation
                End Site
                {
                  OFFSET 0 0 0
                }
              }
            }
          }
        }
      }
      JOINT Bip01_R_Thigh
      {
        OFFSET -6.80264 -1.57702 -6.62463
        CHANNELS 6 Xposition Yposition Zposition Zrotation Xrotation Yrotation
        JOINT Bip01_R_Calf
        {
          OFFSET 15.7566 0 0
          CHANNELS 6 Xposition Yposition Zposition Zrotation Xrotation Yrotation
          JOINT Bip01_R_HorseLink
          {
            OFFSET 16.2363 0 0
            CHANNELS 6 Xposition Yposition Zposition Zrotation Xrotation Yrotation
            JOINT Bip01_R_Foot
            {
              OFFSET 13.9816 0 0
              CHANNELS 6 Xposition Yposition Zposition Zrotation Xrotation Yrotation
              JOINT Bip01_R_Toe0
              {
                OFFSET 7.68597 5.03696 0
                CHANNELS 6 Xposition Yposition Zposition Zrotation Xrotation Yrotation
                End Site
                {
                  OFFSET 0 0 0
                }
              }
            }
          }
        }
      }
    }
    JOINT BN_Tail_01
    {
      OFFSET -7.9584 -2.82211 0
      CHANNELS 6 Xposition Yposition Zposition Zrotation Xrotation Yrotation
      JOINT BN_Tail_02
      {
        OFFSET 10.9082 0 0.00113176
        CHANNELS 6 Xposition Yposition Zposition Zrotation Xrotation Yrotation
        End Site
        {
          OFFSET 0 0 0
        }
      }
    }
  }
}
MOTION
Frames:	4
Frame Time:	0.0333333
34.6628 38.4358 -5.88214e-006 -94.5039 -80.5948 -6.97738 5.46991e-007 -6.73642e-007 2.03996e-006 -98.7896 -1.28446 -73.4817 7.62957 0.873575 2.43159 10.0579 6.42509 -22.1025 14.2502 -0.00829222 0.000612919 14.8237 -4.88372 -1.33759 16.1441 -3.99047 -0.000934525 -3.94958 2.08347 -5.45305 9.69416 -0.00493731 0.000693437 15.4608 -2.19154 2.99813 6.23549 5.27379e-006 5.41453e-007 22.7941 3.7221 -3.19213 4.58057 2.14338 -1.96354e-007 -120.609 -0.0272064 -179.989 -4.52726 -0.8853 -6.54346 179.573 -37.7932 -94.5125 15.6801 -5.92302e-006 1.63319e-007 -63.9903 -42.806 41.9744 15.3148 -2.55225e-006 -3.04031e-006 -56.3479 4.69273e-005 -2.60237e-006 16.1779 -2.82847e-006 4.0717e-006 175.017 -56.1785 179.676 12.9992 -9.25673e-007 2.8282e-006 6.26463 7.49773 12.3246 6.09986 3.12147 -5.23853 -126.021 -79.3772 -131.368 -3.20268 -0.378112 7.32971 -172.34 33.7092 83.2837 15.6801 4.87998e-006 3.22826e-006 -66.9312 48.2065 -47.418 15.3148 1.20991e-006 -1.12639e-006 -68.8665 -1.23449e-005 -6.17181e-006 16.1779 6.51081e-007 8.32616e-007 -174.226 72.2616 165.85 12.9992 1.42663e-006 2.07228e-007 2.52186 1.22095 -2.34684 5.03887 3.89273 -1.75287 53.9722 -79.3762 48.6258 -5.66854 0.904462 6.41229 -108.421 -1.90757 -177.41 15.7566 5.50599e-006 -3.6001e-007 -99.2576 -7.55215e-006 -1.93374e-005 16.2363 -1.13199e-006 3.71561e-006 101.326 -1.36809e-005 2.00726e-005 13.9816 4.29496e-006 -4.61182e-006 -13.0184 -20.7019 -2.57018 7.68592 5.03697 -2.34582e-006 90.9294 0.0666238 -0.106183 -10.3927 -0.509725 -5.21899 -90.0222 1.61699 168.755 15.7566 -8.55473e-006 4.77166e-007 -64.2358 -1.31037e-005 -1.32776e-005 16.2363 2.22613e-006 1.27745e-006 34.0982 8.00556e-006 7.10366e-006 13.9816 -2.05545e-006 -1.70611e-007 37.4696 12.0451 10.5364 7.68597 5.03694 -2.0686e-006 89.9458 0.0172236 -0.000837043 -7.9584 -2.8221 1.21027e-007 45.8922 5.39283 152.038 10.9082 5.72099e-006 0.0017223 8.30904 -21.761 4.90631 
34.5969 37.5069 -5.83753e-006 -94.2277 -80.6383 -7.67217 -3.10324e-008 -3.57824e-007 1.17855e-006 -99.8806 1.42767 -71.9307 7.50507 1.24758 2.64036 11.865 6.76609 -22.119 14.2461 -0.00825746 0.000541781 15.0552 -4.94249 -2.23123 16.1378 -3.98886 -0.000971823 -3.24051 1.12441 -7.26061 9.69047 -0.00489742 0.000661153 12.3045 -1.55944 4.33764 6.2331 2.3838e-005 -1.57425e-005 24.5416 3.27083 -3.60115 4.57823 2.14228 2.43451e-005 -120.713 -0.0268402 -179.989 -4.73868 -0.720836 -6.40866 177.908 -35.8137 -96.1786 15.6728 2.59852e-005 -7.08161e-005 -56.8275 -41.7624 46.6354 15.3077 7.7206e-006 2.93617e-005 -59.9249 -4.06475e-005 -0.000152019 16.1689 -1.2843e-005 2.50543e-005 175.437 -58.207 177.752 12.9898 -1.21302e-005 -9.6272e-006 6.26827 7.5064 11.4503 6.09702 3.12006 -5.23605 -126.022 -79.3768 -131.368 -2.97718 -0.446648 7.41687 -172.409 30.6916 81.4876 15.6732 9.87376e-005 -1.56289e-005 -67.8079 45.6056 -46.875 15.3072 -4.0905e-005 7.58734e-005 -69.2103 0.000179474 3.83371e-005 16.169 1.87794e-006 -7.91072e-006 -161.063 72.0343 153.831 12.9906 2.95462e-005 -1.55762e-005 2.05545 1.16101 -4.55505 5.03633 3.89079 -1.75197 53.9719 -79.3756 48.6254 -5.68118 0.753148 6.20759 -101.532 -0.307025 -176.584 15.7521 3.0027e-005 -3.63364e-005 -97.3483 -0.000181664 0.000259773 16.2313 -3.7315e-005 -7.24981e-005 108.831 0.000307624 8.64896e-005 13.9774 1.12499e-005 -2.07603e-005 -17.7845 -20.5764 -2.79675 7.68343 5.0353 1.04395e-005 90.8212 0.064067 -0.0944322 -10.4042 -0.735521 -5.41073 -89.289 3.46753 168.617 15.751 2.87753e-005 -8.98452e-005 -69.7724 -0.000227324 0.000320474 16.2292 -1.01415e-005 -9.0572e-005 38.578 1.67893e-005 0.000398629 13.9755 3.24706e-005 -9.73351e-005 36.833 12.2514 10.8345 7.68261 5.03472 -1.4353e-005 89.9437 0.0176607 -0.000950516 -7.95671 -2.8215 -2.06627e-005 49.242 9.28096 152.109 10.9057 -1.81341e-006 0.00172814 -2.31887 -21.819 -1.07048 
34.3592 36.5316 -5.27879e-006 -94.0159 -80.7424 -8.41909 2.76185e-007 -1.82638e-007 3.10243e-006 -100.847 3.83713 -70.8583 7.39254 1.57736 2.77755 13.3923 7.05751 -21.6662 14.2473 -0.00827057 0.000562928 15.1213 -4.9778 -3.11761 16.1393 -3.98925 -0.000915976 -2.67881 0.240615 -8.90536 9.69145 -0.00491174 0.000667295 9.54276 -1.08933 5.58863 6.23329 4.15944e-006 -1.10726e-005 25.7304 2.92551 -3.83316 4.57818 2.14223 -1.13554e-005 -120.818 -0.0266724 -179.99 -4.92848 -0.575092 -6.27978 176.604 -33.9602 -97.6896 15.6742 6.62656e-005 -4.54001e-005 -49.973 -40.3926 51.0976 15.3092 -3.66849e-005 -1.12068e-005 -63.8559 -0.000114772 -0.00020373 16.1704 4.04667e-005 5.84764e-005 175.774 -60.2491 175.8 12.9909 -6.95444e-005 -9.15518e-006 6.27179 7.51555 10.5752 6.09763 3.12033 -5.23655 -126.022 -79.3767 -131.368 -2.76949 -0.516451 7.49305 -172.594 27.7799 79.916 15.6746 0.000146169 -2.60987e-005 -68.0491 43.2764 -46.8032 15.3086 -8.01529e-006 0.000168135 -70.0498 0.000651973 -9.70522e-005 16.1701 -1.02033e-005 2.64637e-005 -149.524 71.1612 143.814 12.9915 4.06138e-005 1.11998e-005 1.63334 1.12345 -6.17099 5.0368 3.89114 -1.75207 53.9701 -79.3761 48.6237 -5.73433 0.611505 6.033 -95.483 1.33747 -176.024 15.7535 3.88264e-005 -5.35374e-005 -95.4391 -0.000216935 0.000153517 16.2328 -3.48372e-005 -4.17592e-005 115.914 0.000247519 0.000111717 13.9786 3.43507e-005 -3.30456e-005 -22.828 -20.363 -3.06999 7.6841 5.03577 1.60988e-005 90.713 0.0614687 -0.082473 -10.3631 -0.940908 -5.61607 -88.6694 5.23223 168.531 15.7524 4.27415e-005 -0.000109195 -75.5377 -0.000346058 0.000240253 16.2321 -6.22968e-005 -7.43608e-005 43.5374 -7.33698e-005 0.000423252 13.9767 -1.34695e-005 -0.0001057 35.9519 12.4766 11.0986 7.68328 5.03519 -3.81451e-005 89.9414 0.0179608 -0.000646766 -7.95683 -2.82154 -5.05414e-005 51.2425 12.7568 152.267 10.9058 3.89786e-006 0.00172053 -12.1645 -21.7267 -5.66581 
33.8299 35.6778 -5.53472e-006 -93.8867 -80.9033 -9.14506 1.11342e-006 -4.28331e-007 9.29625e-007 -101.549 5.73486 -70.4783 7.31784 1.83601 2.82004 14.4731 7.30862 -20.6951 14.2501 -0.0083111 0.000578954 14.9829 -4.97648 -3.93619 16.144 -3.99045 -0.000831783 -2.30223 -0.530012 -10.3013 9.69435 -0.00494075 0.000724888 7.46428 -0.791845 6.68973 6.23551 -2.2036e-007 -7.20475e-007 26.1997 2.75563 -3.90655 4.58058 2.14338 -6.7506e-007 -120.923 -0.0261078 -179.991 -5.08582 -0.455671 -6.16621 175.682 -32.4354 -98.9976 15.6801 -7.15981e-006 -3.53395e-006 -44.2782 -39.2803 54.7375 15.3149 9.42034e-008 1.28119e-006 -67.4562 7.50286e-006 5.20073e-005 16.1779 6.5798e-006 -3.14171e-006 175.869 -62.1029 173.766 12.9992 1.91743e-006 2.91657e-006 6.27586 7.52542 9.7016 6.09987 3.12147 -5.23854 -126.021 -79.3773 -131.367 -2.5918 -0.585162 7.55385 -172.839 25.0721 78.644 15.6802 6.36028e-007 -1.48692e-006 -67.8055 41.7564 -46.9296 15.3149 1.46214e-006 2.98706e-006 -71.1765 1.76894e-005 -4.67284e-006 16.1779 7.31637e-006 -3.03705e-006 -140.718 70.1973 136.932 12.9992 -1.38145e-006 -5.84477e-006 1.25731 1.09807 -7.22872 5.03888 3.89274 -1.75287 53.9721 -79.3762 48.6257 -5.83412 0.495644 5.90473 -91.2818 2.76087 -175.658 15.7566 4.07378e-006 1.165e-006 -94.014 -8.78362e-006 -1.84532e-005 16.2363 -4.66448e-007 -3.56101e-007 121.945 -1.56734e-005 7.87543e-006 13.9816 5.18514e-007 -1.83511e-006 -27.8688 -20.1015 -3.3506 7.68592 5.03696 -2.5314e-006 90.6052 0.0586132 -0.0698936 -10.2628 -1.11158 -5.81739 -88.6617 6.79763 168.58 15.7566 -7.87479e-006 3.70838e-007 -81.1635 -1.25468e-005 -1.59481e-005 16.2363 3.08383e-006 -7.99952e-007 48.2315 -1.18095e-005 -1.21516e-005 13.9816 -3.1462e-006 -1.75382e-006 34.9239 12.6607 11.2837 7.68596 5.03694 -3.12188e-006 89.9394 0.0178787 -0.00059157 -7.9584 -2.8221 1.07375e-006 51.458 15.403 152.397 10.9082 4.68537e-006 0.00171937 -20.4067 -21.8435 -8.0914 
